<?xml version="1.0" encoding="UTF-8"?>
<svg id="Layer_2" data-name="Layer 2" xmlns="http://www.w3.org/2000/svg" viewBox="0 0 473.8 40">
  <defs>
    <style>
      .cls-1 {
        fill: #ccb97b;
      }

      .cls-2 {
        fill: #71b8c2;
      }
    </style>
  </defs>
  <g id="Layer_1-2" data-name="Layer 1">
    <g>
      <g>
        <path class="cls-2" d="m12.27,39.45L0,.46h10.9l8.65,30.01h-5.04L23.05.46h9.04l8.54,30.01h-4.98L44.3.46h10.79l-12.27,38.99h-9.09l-8.54-29.96h4.71l-8.54,29.96h-9.09Z"/>
        <path class="cls-2" d="m58.76,39.45V.46h10.95v38.99h-10.95Zm5.97-15.34v-9.09h21.85v9.09h-21.85Zm17.58,15.34V.46h10.95v38.99h-10.95Z"/>
        <path class="cls-2" d="m99.73,39.45V.46h10.95v38.99h-10.95Zm8.87-29.9V.46h20.59v9.09h-20.59Zm0,14.46v-8.87h18.89v8.87h-18.89Zm0,15.44v-9.09h20.92v9.09h-20.92Z"/>
        <path class="cls-2" d="m134.72,39.45V.46h10.95v38.99h-10.95Zm8.87-15.55v-7.56h6.63c1.5,0,2.64-.37,3.42-1.1s1.18-1.7,1.18-2.9-.39-2.17-1.18-2.9-1.93-1.09-3.42-1.09h-6.63V.46h8.38c2.7,0,5.07.49,7.12,1.48,2.04.99,3.65,2.36,4.82,4.11,1.17,1.75,1.75,3.8,1.75,6.13s-.6,4.38-1.78,6.13c-1.19,1.75-2.84,3.12-4.96,4.11-2.12.98-4.62,1.48-7.5,1.48h-7.83Zm12.16,15.55l-10.62-16.65,9.86-2.14,13.2,18.79h-12.43Z"/>
        <path class="cls-2" d="m170.92,39.45V.46h10.95v38.99h-10.95Zm8.87-29.9V.46h20.59v9.09h-20.59Zm0,14.46v-8.87h18.89v8.87h-18.89Zm0,15.44v-9.09h20.92v9.09h-20.92Z"/>
        <path class="cls-2" d="m207.17,39.45V1.44h5.15v38.01h-5.15Z"/>
        <path class="cls-2" d="m231.1,40c-3,0-5.55-.55-7.67-1.64-2.12-1.1-4-2.68-5.64-4.77l3.51-3.5c1.2,1.68,2.59,2.95,4.16,3.8,1.57.86,3.51,1.29,5.8,1.29s4.08-.49,5.45-1.48c1.37-.98,2.05-2.33,2.05-4.05,0-1.42-.33-2.57-.99-3.45-.66-.88-1.54-1.6-2.66-2.16-1.11-.56-2.33-1.08-3.64-1.53-1.31-.46-2.63-.95-3.94-1.48-1.31-.53-2.52-1.19-3.61-1.97-1.09-.79-1.98-1.82-2.66-3.09s-1.01-2.88-1.01-4.82c0-2.15.52-3.99,1.56-5.5,1.04-1.52,2.46-2.68,4.27-3.51,1.81-.82,3.84-1.23,6.11-1.23,2.48,0,4.71.48,6.68,1.45s3.58,2.24,4.82,3.81l-3.51,3.5c-1.13-1.31-2.35-2.3-3.64-2.95-1.3-.66-2.79-.99-4.46-.99-2.04,0-3.67.45-4.87,1.34-1.2.9-1.81,2.15-1.81,3.75,0,1.28.34,2.31,1.01,3.09.67.79,1.56,1.45,2.66,2,1.1.55,2.31,1.05,3.64,1.51,1.33.46,2.66.96,3.97,1.51,1.31.55,2.52,1.24,3.61,2.08,1.1.84,1.98,1.92,2.66,3.26s1.01,3,1.01,5.01c0,3.36-1.16,5.99-3.48,7.89-2.32,1.9-5.45,2.85-9.39,2.85Z"/>
      </g>
      <path class="cls-1" d="m249.39.09c2.3,0,4.6,0,6.89,0,.01,13.22.02,26.43,0,39.65-2.29,0-4.58,0-6.87,0-.05-13.21-.02-26.43-.02-39.65Z"/>
      <path class="cls-1" d="m282.61.09c2.32.01,4.64,0,6.96.01-.01,13.21.05,26.43-.03,39.64-2.3,0-4.6,0-6.89,0-.11-5.49-.01-10.99-.05-16.48-7.73,0-15.46-.03-23.19.02-.11-2.31-.1-4.64,0-6.95,7.73.04,15.47.02,23.2.02.01-5.42,0-10.83,0-16.25Z"/>
      <path class="cls-1" d="m347.85,4.35c.03-1.43-.09-2.87.08-4.3,2.27.09,4.55.02,6.82.04,0,10.91,0,21.81,0,32.72,9.08.01,18.17,0,27.25,0,0,2.31.02,4.61-.02,6.92-11.38-.02-22.77.02-34.15-.02,0-11.79,0-23.58,0-35.37Z"/>
      <path class="cls-1" d="m406,4.23c1.1-1.94,2.88-3.6,5.06-4.19,2.56-.35,4.67,1.73,5.94,3.72,7.04,11.97,14.09,23.93,21.1,35.92-3.05-.05-6.11.1-9.15-.08-1.93-3.78-4.37-7.29-6.47-10.98-6.24-.03-12.47-.01-18.71-.01,1.22-2.39,2.78-4.58,4.09-6.91,3.47-.02,6.93-.02,10.4,0-2.12-3.81-4.52-7.46-6.7-11.23-2.2,3.13-4.02,6.53-6.07,9.77-3.94,6.48-7.89,12.95-11.82,19.44-2.97.03-5.95,0-8.92,0,7.05-11.84,14.18-23.62,21.24-35.45Z"/>
      <path class="cls-1" d="m314.01,4.23c1.1-1.94,2.88-3.6,5.06-4.19,2.56-.35,4.67,1.73,5.94,3.72,7.04,11.97,14.09,23.93,21.1,35.92-3.05-.05-6.11.1-9.15-.08-1.93-3.78-4.37-7.29-6.47-10.98-6.24-.03-12.47-.01-18.71-.01,1.22-2.39,2.78-4.58,4.09-6.91,3.47-.02,6.93-.02,10.4,0-2.12-3.81-4.52-7.46-6.7-11.23-2.2,3.13-4.02,6.53-6.07,9.77-3.94,6.48-7.89,12.95-11.82,19.44-2.97.03-5.95,0-8.92,0,7.05-11.84,14.18-23.62,21.24-35.45Z"/>
      <path class="cls-1" d="m439.58.09c2.31,0,4.63,0,6.95,0,.03,10.91-.02,21.83.02,32.74,9.07-.02,18.13,0,27.2,0,.02,2.28-.05,4.56.05,6.84-11.39.18-22.78.01-34.17.08-.13-13.22-.03-26.44-.05-39.66Z"/>
    </g>
  </g>
</svg>